<?xml version="1.0" standalone="no"?>
<!DOCTYPE svg PUBLIC "-//W3C//DTD SVG 20010904//EN"
 "http://www.w3.org/TR/2001/REC-SVG-20010904/DTD/svg10.dtd">
<svg version="1.0" xmlns="http://www.w3.org/2000/svg"
 width="1024.000000pt" height="1024.000000pt" viewBox="0 0 1024.000000 1024.000000"
 preserveAspectRatio="xMidYMid meet">

<g transform="translate(0.000000,1024.000000) scale(0.100000,-0.100000)"
fill="#000000" stroke="none">
<path d="M2240 6355 c-329 -73 -580 -283 -684 -573 -54 -152 -56 -181 -56
-986 0 -706 1 -743 19 -783 30 -64 97 -89 168 -62 15 6 105 86 198 179 l170
168 315 5 c382 6 442 16 634 113 322 162 516 446 556 813 62 555 -195 977
-675 1112 -71 20 -107 23 -330 25 -190 3 -266 0 -315 -11z m502 -210 c234 -41
416 -172 514 -370 55 -111 81 -215 90 -348 16 -258 -52 -485 -191 -635 l-62
-66 -39 31 c-21 18 -144 137 -272 265 l-232 233 211 210 c116 116 217 219 225
230 24 33 17 83 -15 116 -24 24 -38 29 -76 29 -44 0 -50 -4 -133 -82 -86 -81
-208 -203 -388 -390 l-94 -97 0 246 c0 266 -4 288 -57 312 -49 22 -121 3 -143
-38 -6 -13 -10 -195 -10 -518 0 -457 2 -500 18 -519 35 -44 90 -56 141 -30 41
22 51 55 51 170 l0 103 58 62 57 62 260 -260 259 -260 -55 -26 c-31 -14 -91
-35 -135 -47 -74 -20 -101 -21 -413 -21 l-335 1 -128 -132 -128 -131 3 665 c3
746 1 714 79 880 33 69 56 100 122 165 94 93 181 143 301 174 108 27 118 28
286 30 91 0 178 -5 231 -14z"/>
<path d="M5390 6187 c-154 -35 -270 -159 -270 -287 0 -25 3 -26 78 -37 42 -7
85 -15 95 -18 14 -6 17 -2 17 21 0 16 10 47 23 68 38 68 122 102 210 85 118
-22 171 -123 119 -226 -12 -22 -130 -145 -276 -286 l-256 -249 0 -69 0 -69
390 0 390 0 0 88 0 87 -230 -2 c-126 -1 -230 1 -230 5 1 4 22 24 48 45 26 20
113 101 193 180 182 178 204 216 204 352 0 78 -4 97 -27 141 -35 66 -105 128
-176 154 -70 26 -224 35 -302 17z"/>
<path d="M4160 5645 l0 -525 105 0 105 0 0 173 0 172 33 37 32 37 164 -210
164 -209 134 0 134 0 -18 23 c-10 12 -43 54 -74 92 -56 71 -325 411 -341 431
-5 7 24 48 78 110 47 54 142 163 210 241 68 78 124 145 124 148 0 3 -56 5
-125 5 l-125 0 -117 -138 c-65 -76 -153 -181 -195 -232 l-78 -92 0 231 0 231
-105 0 -105 0 0 -525z"/>
<path d="M6097 5983 c-4 -104 -7 -238 -7 -299 l0 -110 81 -14 81 -13 26 33
c51 66 164 89 248 51 135 -61 135 -259 0 -326 -103 -51 -220 -22 -264 66 l-22
46 -63 -8 c-134 -18 -130 -16 -124 -55 9 -53 47 -122 89 -159 79 -72 174 -100
319 -93 79 3 105 9 159 34 136 64 201 165 208 319 5 119 -19 187 -92 261 -69
68 -137 94 -250 94 -73 0 -91 -4 -142 -30 -32 -16 -59 -30 -59 -30 0 0 1 54 3
120 l3 120 240 0 239 0 0 90 0 90 -333 0 -334 0 -6 -187z"/>
<path d="M6980 5645 l0 -525 100 0 100 0 0 173 0 174 33 37 32 37 44 -58 c25
-32 99 -127 165 -210 l121 -153 128 0 c71 0 127 3 125 8 -3 8 -113 148 -306
390 -107 134 -121 156 -110 170 38 49 369 430 387 446 11 11 21 23 21 28 0 4
-56 8 -125 8 l-124 0 -193 -231 -193 -231 -3 231 -2 231 -100 0 -100 0 0 -525z"/>
<path d="M7970 5645 l0 -525 95 0 95 0 2 341 3 341 118 -236 117 -237 56 3 57
3 113 235 114 235 0 -343 0 -342 95 0 95 0 0 525 0 525 -101 0 -101 0 -129
-265 c-71 -146 -129 -270 -129 -275 0 -33 -29 19 -145 263 l-131 272 -112 3
-112 3 0 -526z"/>
<path d="M4393 4810 c-102 -22 -179 -84 -230 -187 -37 -75 -38 -80 -38 -188 0
-98 3 -116 26 -166 48 -103 124 -169 222 -195 159 -42 329 21 392 147 14 26
25 57 25 69 0 18 -6 20 -64 20 l-65 0 -22 -40 c-57 -102 -206 -118 -299 -34
-52 48 -75 110 -74 204 0 116 41 196 119 231 94 43 211 10 250 -69 l20 -43 65
7 c36 3 66 7 68 9 2 2 -1 21 -7 42 -22 80 -93 151 -180 181 -47 17 -157 23
-208 12z"/>
<path d="M8020 4785 l-55 -23 -3 -61 -3 -61 -39 0 -40 0 0 -55 0 -55 40 0 40
0 0 -175 c0 -186 7 -222 49 -259 24 -22 108 -33 166 -22 35 7 35 7 35 60 l0
54 -44 -5 c-69 -8 -76 9 -76 194 l0 153 60 0 60 0 0 55 0 55 -60 0 -60 0 0 85
c0 47 -3 85 -7 84 -5 0 -33 -11 -63 -24z"/>
<path d="M7532 4648 c-92 -14 -157 -60 -200 -142 -24 -46 -27 -62 -27 -151 0
-92 2 -104 30 -154 109 -198 414 -183 501 24 l14 35 -67 0 c-64 0 -69 -2 -84
-28 -36 -63 -134 -78 -200 -32 -96 69 -90 267 11 321 70 38 161 14 195 -51 15
-28 19 -30 75 -30 32 0 61 4 64 8 10 16 -41 108 -79 140 -61 54 -139 74 -233
60z"/>
<path d="M5037 4636 c-112 -42 -177 -142 -179 -276 -1 -82 14 -136 52 -188 83
-116 245 -144 377 -67 178 105 176 406 -4 512 -38 22 -61 27 -127 30 -52 2
-94 -2 -119 -11z m189 -127 c103 -94 74 -297 -47 -329 -74 -20 -151 20 -179
95 -19 48 -15 140 7 182 31 59 77 86 141 81 37 -3 60 -11 78 -29z"/>
<path d="M5720 4639 c-14 -6 -40 -24 -57 -42 l-33 -31 0 37 0 37 -65 0 -65 0
0 -280 0 -280 65 0 65 0 0 184 c0 174 1 185 23 217 27 40 60 59 105 59 44 0
68 -14 87 -50 12 -23 15 -69 15 -220 l0 -190 65 0 65 0 0 203 c0 111 -5 219
-10 239 -14 48 -55 97 -97 114 -37 16 -126 17 -163 3z"/>
<path d="M6320 4639 c-14 -6 -40 -24 -57 -42 l-33 -31 0 37 0 37 -65 0 -65 0
0 -280 0 -280 64 0 64 0 4 193 c3 211 7 225 64 252 64 30 134 9 153 -46 6 -19
11 -107 11 -215 l0 -184 65 0 65 0 0 203 c0 111 -5 219 -10 239 -14 48 -55 97
-97 114 -37 16 -126 17 -163 3z"/>
<path d="M6861 4636 c-51 -18 -108 -72 -139 -129 -24 -47 -27 -62 -27 -152 0
-92 2 -104 30 -154 95 -173 362 -188 470 -28 19 29 35 55 35 59 0 5 -29 8 -65
8 -61 0 -67 -2 -94 -32 -28 -31 -33 -33 -99 -33 -61 0 -74 3 -97 25 -26 23
-55 77 -55 100 0 6 71 10 205 10 l205 0 0 65 c0 169 -102 275 -265 274 -38 0
-85 -6 -104 -13z m180 -112 c26 -13 59 -68 59 -98 0 -14 -18 -16 -140 -16 -90
0 -140 4 -140 10 0 20 27 75 43 89 48 39 119 45 178 15z"/>
</g>
</svg>
